<?xml version="1.0" encoding="utf-8"?>
<!-- Generator: Adobe Illustrator 23.0.3, SVG Export Plug-In . SVG Version: 6.00 Build 0)  -->
<svg version="1.1" id="Layer_1" xmlns="http://www.w3.org/2000/svg" xmlns:xlink="http://www.w3.org/1999/xlink" x="0px" y="0px"
	 viewBox="0 0 183 322.15" style="enable-background:new 0 0 183 322.15;" xml:space="preserve">
<style type="text/css">
	.st0{fill:#D02027;}
	.st1{fill:#F5EB38;}
	.st2{fill:none;stroke:#FFFFFF;stroke-width:3.5433;stroke-linecap:square;}
	.st3{fill:none;stroke:#FFFFFF;stroke-width:7.0866;}
	.st4{fill:#FFFFFF;stroke:#FFFFFF;stroke-miterlimit:10;}
	.st5{clip-path:url(#SVGID_2_);fill:none;stroke:#FFFFFF;stroke-width:3.5433;stroke-linecap:square;}
	.st6{display:none;fill:#F5EB38;}
</style>
<g>
	<path class="st0" d="M0,130.06c0-36.67,0-73.86,0-110c5.99,0,11.93,0,18,0c0-6.03,0-11.98,0-18c18.32,0,36.83,0,55,0
		c0,5.99,0,11.95,0,18c12.02,0,23.94,0,36,0c0-5.98,0-11.98,0-18c18.38,0,36.62,0,55,0c0,5.95,0,11.91,0,18c6.12,0,12.94,0,19,0
		c0,36.73,0,73.32,0,110C122.03,130.06,61.07,130.06,0,130.06z"/>
</g>
<path class="st1" d="M62.33,150.41h57.34c2.22,0,3.97,1.75,3.97,3.93c0,12.02,2.46,22.66,6.01,32.31
	c3.64,9.89,8.42,18.83,12.87,27.2c7.52,14.1,14.29,26.73,14.29,40.4v0.76c-0.19,21.05-8.52,37.8-20.86,49.35
	c-12.3,11.54-28.67,17.79-45.04,17.79c-0.14,0-0.28,0-0.38-0.05h-0.24c-17.22-0.14-34.4-7.29-46.79-20.2
	c-11.07-11.59-18.31-27.72-18.31-47.64c0-13.67,6.77-26.31,14.24-40.4c8.89-16.65,18.92-35.39,18.92-59.52
	C58.35,152.16,60.11,150.41,62.33,150.41z M117.16,136.12c2.18,0,3.97,1.75,3.97,3.97c0,2.18-1.8,3.97-3.97,3.97H64.84
	c-2.18,0-3.97-1.8-3.97-3.97c0-2.22,1.8-3.97,3.97-3.97H117.16z M98.95,215.42h-15.9v5.54c0,2.22-1.75,3.97-3.93,3.97
	c-2.22,0-3.97-1.75-3.97-3.97v-62.64h-8.94c-0.99,24.08-10.93,42.68-19.78,59.28c-7,13.11-13.34,24.93-13.34,36.67
	c0,17.69,6.39,31.98,16.13,42.15c10.88,11.4,25.97,17.65,41.16,17.79h0.52c14.38,0,28.81-5.49,39.69-15.66
	c10.83-10.12,18.12-24.93,18.31-43.57v-0.71c0-11.73-6.34-23.56-13.34-36.67c-4.64-8.71-9.56-17.93-13.34-28.2
	c-3.45-9.42-5.96-19.63-6.43-31.08h-8.94v62.64c0,2.22-1.75,3.97-3.97,3.97c-2.18,0-3.93-1.75-3.93-3.97V215.42z M83.05,158.31
	v49.16h15.9v-49.16H83.05z"/>
<g>
	<path class="st2" d="M91.5,37.31c-13.97,0-25.3,11.33-25.3,25.3s11.33,25.3,25.3,25.3c0,0,0,0,0,0c13.97,0,25.3-11.33,25.3-25.3
		C116.8,48.64,105.48,37.31,91.5,37.31C91.5,37.31,91.5,37.31,91.5,37.31"/>
	<path class="st2" d="M91.5,69.11v25.7"/>
	<path class="st3" d="M76.6,69.11h29.8"/>
	<path class="st2" d="M100.6,68.81l12.2-20.7h14.1"/>
	<path class="st2" d="M82.4,68.81l-12.2-20.7H56.1"/>
	<path class="st4" d="M111.1,51.01l-0.7,9.5l-3.7-2.2l-3.6-2.2L111.1,51.01z"/>
</g>
<g>
	<defs>
		<path id="SVGID_1_" d="M0,130.06c0-36.67,0-73.86,0-110c5.99,0,11.93,0,18,0c0-6.03,0-11.98,0-18c18.32,0,36.83,0,55,0
			c0,5.99,0,11.95,0,18c12.02,0,23.94,0,36,0c0-5.98,0-11.98,0-18c18.38,0,36.62,0,55,0c0,5.95,0,11.91,0,18c6.12,0,12.94,0,19,0
			c0,36.73,0,73.32,0,110C122.03,130.06,61.07,130.06,0,130.06z"/>
	</defs>
	<clipPath id="SVGID_2_">
		<use xlink:href="#SVGID_1_"  style="overflow:visible;"/>
	</clipPath>
	<path class="st5" d="M91.5,92.73v25.7"/>
	<path class="st5" d="M91.5,104.93v25.7"/>
	<path class="st5" d="M45.5,2.06l8.26,46.05h9.55"/>
	<path class="st5" d="M136.5,2.06l-7.87,46.05h-9.09"/>
</g>
<path class="st6" d="M62.41,130.06h58.18c2.26,0,4.03,1.78,4.03,3.98c0,12.19,2.5,22.99,6.1,32.79c3.7,10.03,8.54,19.11,13.06,27.6
	c7.63,14.31,14.5,27.12,14.5,41v0.77c-0.19,21.36-8.64,38.36-21.17,50.07c-12.48,11.71-29.09,18.05-45.7,18.05
	c-0.14,0-0.29,0-0.38-0.05h-0.24c-17.47-0.14-34.9-7.39-47.48-20.5c-11.23-11.76-18.58-28.13-18.58-48.34
	c0-13.87,6.86-26.69,14.45-41c9.02-16.9,19.2-35.91,19.2-60.39C58.38,131.83,60.15,130.06,62.41,130.06z M99.56,196.02H83.44v5.62
	c0,2.26-1.78,4.03-3.98,4.03c-2.26,0-4.03-1.78-4.03-4.03v-63.56h-9.07c-1.01,24.43-11.09,43.3-20.07,60.15
	c-7.1,13.3-13.54,25.3-13.54,37.2c0,17.95,6.48,32.45,16.37,42.77c11.04,11.57,26.35,17.91,41.76,18.05h0.53
	c14.59,0,29.23-5.57,40.28-15.89c10.99-10.27,18.39-25.3,18.58-44.21v-0.72c0-11.91-6.43-23.91-13.54-37.2
	c-4.7-8.83-9.7-18.19-13.54-28.61c-3.5-9.55-6.05-19.92-6.53-31.54h-9.07v63.56c0,2.26-1.78,4.03-4.03,4.03
	c-2.21,0-3.98-1.78-3.98-4.03V196.02z M83.44,138.07v49.88h16.13v-49.88H83.44z"/>
</svg>
